<?xml version="1.0" standalone="no"?><!DOCTYPE svg PUBLIC "-//W3C//DTD SVG 1.1//EN" "http://www.w3.org/Graphics/SVG/1.1/DTD/svg11.dtd"><svg class="icon" width="40px" height="40.00px" viewBox="0 0 1024 1024" version="1.1" xmlns="http://www.w3.org/2000/svg"><path d="M530.56 594.56l19.2-18.56H0V448h549.76l-19.2-18.56a64.256 64.256 0 0 1 90.88-90.88l128 128a64 64 0 0 1 0 90.88l-128 128a64 64 0 0 1-90.88 0 64 64 0 0 1 0-90.88zM896 0a128 128 0 0 1 128 128v768a128 128 0 0 1-128 128H320a128 128 0 0 1-128-128v-64h128v64h576V128H320v64H192V128a128 128 0 0 1 128-128h576z" fill="#d4237a" /></svg>